<svg width="156" height="138" viewBox="0 0 156 138" fill="none" xmlns="http://www.w3.org/2000/svg">
<path d="M139.408 17.6524C151.625 29.9225 135.824 65.2638 104.605 96.2496C73.5513 127.364 38.5365 142.611 26.1721 130.36C23.4141 127.555 12.3296 118.295 12.3033 113.343C12.1662 96.8397 36.5456 75.8811 60.403 51.985C82.6737 29.7916 102.589 2.03933 119.131 3.39913C129.149 4.23334 135.965 14.1835 139.408 17.6524Z" fill="#F26021"/>
<path opacity="0.2" d="M119.129 3.40389C131.607 5.87896 135.093 13.2471 139.406 17.6571C143.886 22.1962 144.692 29.7534 142.139 39.238C141.882 40.3719 141.526 41.5182 141.072 42.6771C139.141 48.7787 135.807 55.6587 131.586 62.651C130.996 63.5267 130.413 64.4516 129.835 65.4258C125.577 72.1225 120.173 79.2645 114.141 86.1858C113.539 86.9629 112.887 87.7463 112.186 88.536C109.812 91.1393 107.334 93.7059 104.751 96.2356C102.18 98.8639 99.541 101.351 96.8343 103.696C96.1208 104.387 95.4073 105.078 94.6938 105.769C87.9207 111.583 81.0541 116.657 74.5185 120.789C73.6878 121.344 72.857 121.9 72.0262 122.456C65.0473 126.644 58.2517 129.907 52.0641 132.042C51.0051 132.376 49.9891 132.655 49.0161 132.878C39.0228 135.796 30.9828 135.162 26.1703 130.364C23.227 127.283 12.0883 118.781 12.3014 113.347C12.3668 107.932 15.2031 101.866 19.6467 95.4466C20.2492 94.6694 20.8454 93.843 21.4354 92.9673C30.6744 80.5338 45.7324 66.6126 60.4012 51.9898C77.7455 34.7754 96.8579 13.7328 112.24 5.92814C113.188 5.50775 114.136 5.08737 115.084 4.66697C116.413 4.09813 117.762 3.6771 119.129 3.40389Z" fill="black"/>
<g opacity="0.2">
<path d="M19.6573 90.7893L21.4349 92.9672L52.0636 132.042C51.0046 132.376 49.9886 132.655 49.0156 132.878L19.6463 95.4464L17.3317 92.5856L19.6573 90.7893Z" fill="black"/>
</g>
<g opacity="0.2">
<path d="M43.0011 80.6225L74.5186 120.786C73.6879 121.342 72.8571 121.897 72.0263 122.453L40.6754 82.4188L43.0011 80.6225Z" fill="black"/>
</g>
<g opacity="0.2">
<path d="M84.2511 48.2166L114.139 86.1835C113.536 86.9607 112.885 87.7441 112.184 88.5337L81.9254 50.0129L84.2511 48.2166Z" fill="black"/>
</g>
<g opacity="0.2">
<path d="M65.1294 63.2525L96.8321 103.693C96.1186 104.384 95.4051 105.075 94.6916 105.766L62.6559 65.0675L65.1294 63.2525Z" fill="black"/>
</g>
<g opacity="0.2">
<path d="M102.427 25.6403L131.592 62.6474C131.002 63.5231 130.419 64.4481 129.841 65.4223L100.101 27.4366L102.427 25.6403Z" fill="black"/>
</g>
<path d="M128.504 7.47082C140.721 19.741 125.345 54.8782 94.2735 85.8453C63.2202 116.96 28.0576 132.225 15.841 119.955C3.62441 107.685 18.8521 72.5666 49.9241 41.5995C81.1252 10.4659 116.14 -4.7806 128.504 7.47082Z" fill="#F26021"/>
<path opacity="0.2" d="M117.821 17.9857C126.428 26.6578 113.627 53.6596 88.9578 78.2593C64.2885 102.859 37.3829 115.727 28.7757 107.055C20.1685 98.3828 32.9883 71.5288 57.6577 46.9291C82.3271 22.3294 109.214 9.3135 117.821 17.9857Z" fill="white"/>
</svg>
