<svg xmlns="http://www.w3.org/2000/svg" fill="none" viewBox="1.37 4.19 74.63 21.75">
<path d="M1.37161 24V21.6524L10.2344 8.56934H1.7409V5.53596H14.4547V7.90991L5.56559 20.9666H15.0614V24H1.37161ZM17.9237 24V10.8114H21.2209V24H17.9237ZM17.0533 6.45916C17.0533 5.16668 18.1084 4.19072 19.5591 4.19072C21.0099 4.19072 22.0649 5.16668 22.0649 6.45916C22.0649 7.75164 21.0099 8.7276 19.5591 8.7276C18.1084 8.7276 17.0533 7.75164 17.0533 6.45916ZM24.7406 24V10.8114H28.0377V13.3964C28.8027 11.6027 30.4117 10.5476 32.6274 10.5476C35.6607 10.5476 37.5863 12.5523 37.5863 15.8758V24H34.2627V16.5089C34.2627 14.5306 33.1813 13.3964 31.3613 13.3964C29.3302 13.3964 28.0377 14.8207 28.0377 17.1419V24H24.7406ZM47.1515 24.2638C42.8784 24.2638 39.9769 21.3887 39.9769 17.3529C39.9769 13.37 42.9048 10.5476 47.0724 10.5476C51.24 10.5476 53.9568 13.1853 53.8249 17.3266H43.1422C43.1949 19.9379 44.8567 21.4678 47.0724 21.4678C49.1034 21.4678 50.6069 20.2808 50.7652 18.5663H54.1151C53.9041 21.969 51.0026 24.2638 47.1515 24.2638ZM43.5642 15.1109H50.3959C49.9211 13.7129 48.7341 12.948 47.046 12.948C45.3315 12.948 44.1445 13.7656 43.5642 15.1109Z" fill="white"/>
<rect x="57.6484" y="7.83594" width="18.3514" height="18.1062" rx="2.23879" fill="#6421F2"/>
<path fill-rule="evenodd" clip-rule="evenodd" d="M64.7861 11.1943C64.6911 11.1943 64.6 11.2321 64.5329 11.2992L59.9923 15.8398C59.7667 16.0654 59.9265 16.4512 60.2456 16.4512H62.616L60.4444 22.0974C60.3541 22.332 60.5273 22.5842 60.7787 22.5842H67.8964C67.9946 22.5842 68.086 22.5442 68.1521 22.4769H68.1561L73.653 17.0647C73.8814 16.8399 73.7222 16.4513 73.4017 16.4513H70.5012L72.3359 11.6811C72.4262 11.4465 72.253 11.1943 72.0016 11.1943H71.6615C71.6604 11.1943 71.6594 11.1943 71.6583 11.1943H64.7861ZM63.5547 16.4512H67.1178C67.2128 16.4512 67.3039 16.4135 67.3711 16.3463L70.9978 12.7196L67.5407 21.708H61.5328L63.5547 16.4512Z" fill="white"/>
</svg>